<svg xmlns="http://www.w3.org/2000/svg" version="1" xmlns:xlink="http://www.w3.org/1999/xlink" width="1200" zoomAndPan="magnify" viewBox="0 0 900 472.499986" height="630" preserveAspectRatio="xMidYMid meet"><metadata><rdf:RDF xmlns:rdf="http://www.w3.org/1999/02/22-rdf-syntax-ns#" xmlns:dc="http://purl.org/dc/elements/1.1/"><rdf:Description><dc:creator>RealFaviconGenerator</dc:creator><dc:source>https://realfavicongenerator.net</dc:source></rdf:Description></rdf:RDF></metadata><defs><clipPath id="4aa57a5e80"><path d="M 0.476562 0 L 899.523438 0 L 899.523438 472 L 0.476562 472 Z M 0.476562 0 " clip-rule="nonzero"></path></clipPath><clipPath id="06e5500c05"><path d="M 0.476562 347.007812 L 899.523438 347.007812 L 899.523438 472 L 0.476562 472 Z M 0.476562 347.007812 " clip-rule="nonzero"></path></clipPath><clipPath id="f9917de293"><path d="M 0.476562 0.0078125 L 899.523438 0.0078125 L 899.523438 125 L 0.476562 125 Z M 0.476562 0.0078125 " clip-rule="nonzero"></path></clipPath><clipPath id="4372502619"><rect x="0" width="900" y="0" height="125"></rect></clipPath><clipPath id="6647e0a382"><path d="M 317.03125 83.378906 L 562.023438 83.378906 L 562.023438 388.304688 L 317.03125 388.304688 Z M 317.03125 83.378906 " clip-rule="nonzero"></path></clipPath></defs><g clip-path="url(#4aa57a5e80)"><path fill="#ffffff" d="M 0.476562 0 L 899.523438 0 L 899.523438 472 L 0.476562 472 Z M 0.476562 0 " fill-opacity="1" fill-rule="nonzero"></path><path fill="#ffffff" d="M 0.476562 0 L 899.523438 0 L 899.523438 472 L 0.476562 472 Z M 0.476562 0 " fill-opacity="1" fill-rule="nonzero"></path></g><g clip-path="url(#06e5500c05)"><g transform="matrix(1, 0, 0, 1, 0.000000000000000111, 347)"><g clip-path="url(#4372502619)"><g clip-path="url(#f9917de293)"><path fill="#ffcc33" d="M -45.253906 0.0078125 L 965.304688 0.0078125 L 965.304688 141.609375 L -45.253906 141.609375 Z M -45.253906 0.0078125 " fill-opacity="1" fill-rule="nonzero"></path></g></g></g></g><path fill="#cbc7ff" d="M 551.550781 102.519531 C 543.847656 92.203125 531.53125 85.519531 517.652344 85.519531 L 361.417969 85.519531 C 338.078125 85.519531 319.15625 104.417969 319.15625 127.734375 L 319.15625 343.949219 C 319.15625 357.144531 325.21875 368.925781 334.710938 376.660156 C 334.96875 376.878906 335.234375 377.085938 335.5 377.292969 C 342.65625 382.855469 351.652344 386.167969 361.417969 386.167969 L 517.652344 386.167969 C 527.417969 386.167969 536.414062 382.855469 543.570312 377.292969 C 553.511719 369.570312 559.914062 357.503906 559.914062 343.949219 L 559.914062 127.734375 C 559.914062 118.28125 556.800781 109.554688 551.546875 102.519531 Z M 340.625 122.128906 C 340.625 115.304688 346.164062 109.777344 352.992188 109.777344 L 526.082031 109.777344 C 532.90625 109.777344 538.445312 115.304688 538.445312 122.128906 L 538.445312 151.777344 C 538.445312 158.59375 532.90625 164.128906 526.082031 164.128906 L 352.988281 164.128906 C 346.164062 164.128906 340.625 158.59375 340.625 151.777344 Z M 382.839844 355.871094 C 382.839844 359.632812 379.785156 362.683594 376.019531 362.683594 L 347.453125 362.683594 C 343.679688 362.683594 340.625 359.632812 340.625 355.871094 L 340.625 335.539062 C 340.625 331.773438 343.679688 328.71875 347.453125 328.71875 L 376.019531 328.71875 C 379.785156 328.71875 382.839844 331.773438 382.839844 335.539062 Z M 382.839844 307.925781 C 382.839844 311.695312 379.785156 314.746094 376.019531 314.746094 L 347.453125 314.746094 C 343.679688 314.746094 340.625 311.695312 340.625 307.925781 L 340.625 287.59375 C 340.625 283.832031 343.679688 280.78125 347.453125 280.78125 L 376.019531 280.78125 C 379.785156 280.78125 382.839844 283.832031 382.839844 287.59375 Z M 382.839844 259.984375 C 382.839844 263.75 379.785156 266.804688 376.019531 266.804688 L 347.453125 266.804688 C 343.679688 266.804688 340.625 263.75 340.625 259.984375 L 340.625 239.652344 C 340.625 235.886719 343.679688 232.835938 347.453125 232.835938 L 376.019531 232.835938 C 379.785156 232.835938 382.839844 235.886719 382.839844 239.652344 Z M 382.839844 212.042969 C 382.839844 215.808594 379.785156 218.859375 376.019531 218.859375 L 347.453125 218.859375 C 343.679688 218.859375 340.625 215.808594 340.625 212.042969 L 340.625 191.714844 C 340.625 187.949219 343.679688 184.894531 347.453125 184.894531 L 376.019531 184.894531 C 379.785156 184.894531 382.839844 187.949219 382.839844 191.714844 Z M 435.890625 355.871094 C 435.890625 359.632812 432.835938 362.683594 429.066406 362.683594 L 400.5 362.683594 C 396.730469 362.683594 393.675781 359.632812 393.675781 355.871094 L 393.675781 335.539062 C 393.675781 331.773438 396.730469 328.71875 400.5 328.71875 L 429.066406 328.71875 C 432.835938 328.71875 435.890625 331.773438 435.890625 335.539062 Z M 435.890625 307.925781 C 435.890625 311.695312 432.835938 314.746094 429.066406 314.746094 L 400.5 314.746094 C 396.730469 314.746094 393.675781 311.695312 393.675781 307.925781 L 393.675781 287.59375 C 393.675781 283.832031 396.730469 280.78125 400.5 280.78125 L 429.066406 280.78125 C 432.835938 280.78125 435.890625 283.832031 435.890625 287.59375 Z M 435.890625 259.984375 C 435.890625 263.75 432.835938 266.804688 429.066406 266.804688 L 400.5 266.804688 C 396.730469 266.804688 393.675781 263.75 393.675781 259.984375 L 393.675781 239.652344 C 393.675781 235.886719 396.730469 232.835938 400.5 232.835938 L 429.066406 232.835938 C 432.835938 232.835938 435.890625 235.886719 435.890625 239.652344 Z M 435.890625 212.042969 C 435.890625 215.808594 432.835938 218.859375 429.066406 218.859375 L 400.5 218.859375 C 396.730469 218.859375 393.675781 215.808594 393.675781 212.042969 L 393.675781 191.714844 C 393.675781 187.949219 396.730469 184.894531 400.5 184.894531 L 429.066406 184.894531 C 432.835938 184.894531 435.890625 187.949219 435.890625 191.714844 Z M 488.941406 355.871094 C 488.941406 359.632812 485.886719 362.683594 482.113281 362.683594 L 453.550781 362.683594 C 449.78125 362.683594 446.726562 359.632812 446.726562 355.871094 L 446.726562 335.539062 C 446.726562 331.773438 449.78125 328.71875 453.550781 328.71875 L 482.113281 328.71875 C 485.886719 328.71875 488.941406 331.773438 488.941406 335.539062 Z M 488.941406 307.925781 C 488.941406 311.695312 485.886719 314.746094 482.113281 314.746094 L 453.550781 314.746094 C 449.78125 314.746094 446.726562 311.695312 446.726562 307.925781 L 446.726562 287.59375 C 446.726562 283.832031 449.78125 280.78125 453.550781 280.78125 L 482.113281 280.78125 C 485.886719 280.78125 488.941406 283.832031 488.941406 287.59375 Z M 488.941406 259.984375 C 488.941406 263.75 485.886719 266.804688 482.113281 266.804688 L 453.550781 266.804688 C 449.78125 266.804688 446.726562 263.75 446.726562 259.984375 L 446.726562 239.652344 C 446.726562 235.886719 449.78125 232.835938 453.550781 232.835938 L 482.113281 232.835938 C 485.886719 232.835938 488.941406 235.886719 488.941406 239.652344 Z M 488.941406 212.042969 C 488.941406 215.808594 485.886719 218.859375 482.113281 218.859375 L 453.550781 218.859375 C 449.78125 218.859375 446.726562 215.808594 446.726562 212.042969 L 446.726562 191.714844 C 446.726562 187.949219 449.78125 184.894531 453.550781 184.894531 L 482.113281 184.894531 C 485.886719 184.894531 488.941406 187.949219 488.941406 191.714844 Z M 540.464844 353.167969 C 540.464844 358.421875 536.199219 362.683594 530.9375 362.683594 L 507.78125 362.683594 C 502.519531 362.683594 498.253906 358.421875 498.253906 353.167969 L 498.253906 290.300781 C 498.253906 285.042969 502.519531 280.78125 507.78125 280.78125 L 530.9375 280.78125 C 536.199219 280.78125 540.464844 285.042969 540.464844 290.300781 Z M 540.464844 259.984375 C 540.464844 263.75 537.410156 266.804688 533.640625 266.804688 L 505.078125 266.804688 C 501.304688 266.804688 498.25 263.75 498.25 259.984375 L 498.25 239.652344 C 498.25 235.886719 501.304688 232.835938 505.078125 232.835938 L 533.640625 232.835938 C 537.410156 232.835938 540.464844 235.886719 540.464844 239.652344 Z M 540.464844 259.984375 " fill-opacity="1" fill-rule="nonzero"></path><path fill="#aa9fee" d="M 559.914062 127.734375 L 559.914062 343.949219 C 559.914062 357.503906 553.515625 369.570312 543.570312 377.292969 C 536.414062 382.855469 527.417969 386.167969 517.652344 386.167969 L 361.417969 386.167969 C 351.652344 386.167969 342.65625 382.855469 335.5 377.292969 C 335.234375 377.085938 334.972656 376.878906 334.714844 376.660156 C 329.457031 369.625 326.347656 360.902344 326.347656 351.453125 L 326.347656 135.238281 C 326.347656 111.921875 345.273438 93.023438 368.609375 93.023438 L 524.84375 93.023438 C 534.972656 93.023438 544.277344 96.582031 551.550781 102.519531 C 556.804688 109.554688 559.914062 118.28125 559.914062 127.734375 Z M 559.914062 127.734375 " fill-opacity="1" fill-rule="nonzero"></path><path fill="#ffe59c" d="M 540.464844 239.652344 L 540.464844 259.984375 C 540.464844 263.75 537.410156 266.804688 533.640625 266.804688 L 505.078125 266.804688 C 501.304688 266.804688 498.25 263.75 498.25 259.984375 L 498.25 239.652344 C 498.25 235.886719 501.304688 232.835938 505.078125 232.835938 L 533.640625 232.835938 C 536.359375 232.835938 538.703125 234.421875 539.800781 236.714844 C 540.230469 237.605469 540.464844 238.605469 540.464844 239.652344 Z M 540.464844 239.652344 " fill-opacity="1" fill-rule="nonzero"></path><path fill="#ffe59c" d="M 488.941406 335.539062 L 488.941406 355.871094 C 488.941406 359.632812 485.886719 362.683594 482.113281 362.683594 L 453.550781 362.683594 C 449.78125 362.683594 446.726562 359.632812 446.726562 355.871094 L 446.726562 335.539062 C 446.726562 331.773438 449.78125 328.71875 453.550781 328.71875 L 482.113281 328.71875 C 484.835938 328.71875 487.179688 330.308594 488.277344 332.601562 C 488.703125 333.488281 488.941406 334.488281 488.941406 335.539062 Z M 488.941406 335.539062 " fill-opacity="1" fill-rule="nonzero"></path><path fill="#ffe59c" d="M 488.941406 287.59375 L 488.941406 307.925781 C 488.941406 311.695312 485.886719 314.746094 482.113281 314.746094 L 453.550781 314.746094 C 449.78125 314.746094 446.726562 311.695312 446.726562 307.925781 L 446.726562 287.59375 C 446.726562 283.832031 449.78125 280.78125 453.550781 280.78125 L 482.113281 280.78125 C 484.835938 280.78125 487.179688 282.367188 488.277344 284.660156 C 488.703125 285.550781 488.941406 286.542969 488.941406 287.59375 Z M 488.941406 287.59375 " fill-opacity="1" fill-rule="nonzero"></path><path fill="#ffe59c" d="M 488.941406 239.652344 L 488.941406 259.984375 C 488.941406 263.75 485.886719 266.804688 482.113281 266.804688 L 453.550781 266.804688 C 449.78125 266.804688 446.726562 263.75 446.726562 259.984375 L 446.726562 239.652344 C 446.726562 235.886719 449.78125 232.835938 453.550781 232.835938 L 482.113281 232.835938 C 484.835938 232.835938 487.179688 234.421875 488.277344 236.714844 C 488.703125 237.605469 488.941406 238.605469 488.941406 239.652344 Z M 488.941406 239.652344 " fill-opacity="1" fill-rule="nonzero"></path><path fill="#ffe59c" d="M 488.941406 191.714844 L 488.941406 212.039062 C 488.941406 215.808594 485.886719 218.859375 482.113281 218.859375 L 453.550781 218.859375 C 449.78125 218.859375 446.726562 215.808594 446.726562 212.039062 L 446.726562 191.714844 C 446.726562 187.945312 449.78125 184.894531 453.550781 184.894531 L 482.113281 184.894531 C 484.835938 184.894531 487.179688 186.480469 488.277344 188.777344 C 488.703125 189.664062 488.941406 190.664062 488.941406 191.714844 Z M 488.941406 191.714844 " fill-opacity="1" fill-rule="nonzero"></path><path fill="#ffe59c" d="M 435.890625 191.714844 L 435.890625 212.039062 C 435.890625 215.808594 432.835938 218.859375 429.066406 218.859375 L 400.5 218.859375 C 396.730469 218.859375 393.675781 215.808594 393.675781 212.039062 L 393.675781 191.714844 C 393.675781 187.945312 396.730469 184.894531 400.5 184.894531 L 429.066406 184.894531 C 431.785156 184.894531 434.128906 186.480469 435.226562 188.777344 C 435.652344 189.664062 435.890625 190.664062 435.890625 191.714844 Z M 435.890625 191.714844 " fill-opacity="1" fill-rule="nonzero"></path><path fill="#ffe59c" d="M 435.890625 239.652344 L 435.890625 259.984375 C 435.890625 263.75 432.835938 266.804688 429.066406 266.804688 L 400.5 266.804688 C 396.730469 266.804688 393.675781 263.75 393.675781 259.984375 L 393.675781 239.652344 C 393.675781 235.886719 396.730469 232.835938 400.5 232.835938 L 429.066406 232.835938 C 431.785156 232.835938 434.128906 234.421875 435.226562 236.714844 C 435.652344 237.605469 435.890625 238.605469 435.890625 239.652344 Z M 435.890625 239.652344 " fill-opacity="1" fill-rule="nonzero"></path><path fill="#ffe59c" d="M 435.890625 287.59375 L 435.890625 307.925781 C 435.890625 311.695312 432.835938 314.746094 429.066406 314.746094 L 400.5 314.746094 C 396.730469 314.746094 393.675781 311.695312 393.675781 307.925781 L 393.675781 287.59375 C 393.675781 283.832031 396.730469 280.78125 400.5 280.78125 L 429.066406 280.78125 C 431.785156 280.78125 434.128906 282.367188 435.226562 284.660156 C 435.652344 285.550781 435.890625 286.542969 435.890625 287.59375 Z M 435.890625 287.59375 " fill-opacity="1" fill-rule="nonzero"></path><path fill="#ffe59c" d="M 435.890625 335.539062 L 435.890625 355.871094 C 435.890625 359.632812 432.835938 362.683594 429.066406 362.683594 L 400.5 362.683594 C 396.730469 362.683594 393.675781 359.632812 393.675781 355.871094 L 393.675781 335.539062 C 393.675781 331.773438 396.730469 328.71875 400.5 328.71875 L 429.066406 328.71875 C 431.785156 328.71875 434.128906 330.308594 435.226562 332.601562 C 435.652344 333.488281 435.890625 334.488281 435.890625 335.539062 Z M 435.890625 335.539062 " fill-opacity="1" fill-rule="nonzero"></path><path fill="#ffe59c" d="M 382.839844 335.539062 L 382.839844 355.871094 C 382.839844 359.632812 379.785156 362.683594 376.019531 362.683594 L 347.453125 362.683594 C 343.679688 362.683594 340.625 359.632812 340.625 355.871094 L 340.625 335.539062 C 340.625 331.773438 343.679688 328.71875 347.453125 328.71875 L 376.019531 328.71875 C 378.734375 328.71875 381.078125 330.308594 382.175781 332.601562 C 382.601562 333.488281 382.839844 334.488281 382.839844 335.539062 Z M 382.839844 335.539062 " fill-opacity="1" fill-rule="nonzero"></path><path fill="#ffe59c" d="M 382.839844 287.59375 L 382.839844 307.925781 C 382.839844 311.695312 379.785156 314.746094 376.019531 314.746094 L 347.453125 314.746094 C 343.679688 314.746094 340.625 311.695312 340.625 307.925781 L 340.625 287.59375 C 340.625 283.832031 343.679688 280.78125 347.453125 280.78125 L 376.019531 280.78125 C 378.734375 280.78125 381.082031 282.367188 382.175781 284.660156 C 382.601562 285.550781 382.839844 286.542969 382.839844 287.59375 Z M 382.839844 287.59375 " fill-opacity="1" fill-rule="nonzero"></path><path fill="#ffe59c" d="M 382.839844 239.652344 L 382.839844 259.984375 C 382.839844 263.75 379.785156 266.804688 376.019531 266.804688 L 347.453125 266.804688 C 343.679688 266.804688 340.625 263.75 340.625 259.984375 L 340.625 239.652344 C 340.625 235.886719 343.679688 232.835938 347.453125 232.835938 L 376.019531 232.835938 C 378.734375 232.835938 381.078125 234.421875 382.175781 236.714844 C 382.601562 237.605469 382.839844 238.605469 382.839844 239.652344 Z M 382.839844 239.652344 " fill-opacity="1" fill-rule="nonzero"></path><path fill="#ffe59c" d="M 382.839844 191.714844 L 382.839844 212.039062 C 382.839844 215.808594 379.785156 218.859375 376.019531 218.859375 L 347.453125 218.859375 C 343.679688 218.859375 340.625 215.808594 340.625 212.039062 L 340.625 191.714844 C 340.625 187.945312 343.679688 184.894531 347.453125 184.894531 L 376.019531 184.894531 C 378.734375 184.894531 381.078125 186.480469 382.175781 188.777344 C 382.601562 189.664062 382.839844 190.664062 382.839844 191.714844 Z M 382.839844 191.714844 " fill-opacity="1" fill-rule="nonzero"></path><path fill="#f5d25e" d="M 540.464844 239.652344 L 540.464844 259.984375 C 540.464844 263.75 537.410156 266.804688 533.640625 266.804688 L 505.09375 266.804688 C 504.667969 265.917969 504.429688 264.921875 504.429688 263.867188 L 504.429688 243.535156 C 504.429688 239.769531 507.484375 236.714844 511.257812 236.714844 L 539.800781 236.714844 C 540.230469 237.605469 540.464844 238.605469 540.464844 239.652344 Z M 540.464844 239.652344 " fill-opacity="1" fill-rule="nonzero"></path><path fill="#f5d25e" d="M 488.941406 335.539062 L 488.941406 355.871094 C 488.941406 359.632812 485.886719 362.683594 482.113281 362.683594 L 453.574219 362.683594 C 453.144531 361.796875 452.90625 360.800781 452.90625 359.75 L 452.90625 339.417969 C 452.90625 335.652344 455.964844 332.601562 459.730469 332.601562 L 488.277344 332.601562 C 488.703125 333.488281 488.941406 334.488281 488.941406 335.539062 Z M 488.941406 335.539062 " fill-opacity="1" fill-rule="nonzero"></path><path fill="#f5d25e" d="M 488.941406 287.59375 L 488.941406 307.925781 C 488.941406 311.695312 485.886719 314.746094 482.113281 314.746094 L 453.574219 314.746094 C 453.144531 313.855469 452.90625 312.859375 452.90625 311.808594 L 452.90625 291.476562 C 452.90625 287.714844 455.964844 284.660156 459.730469 284.660156 L 488.277344 284.660156 C 488.703125 285.550781 488.941406 286.542969 488.941406 287.59375 Z M 488.941406 287.59375 " fill-opacity="1" fill-rule="nonzero"></path><path fill="#f5d25e" d="M 488.941406 239.652344 L 488.941406 259.984375 C 488.941406 263.75 485.886719 266.804688 482.113281 266.804688 L 453.574219 266.804688 C 453.144531 265.917969 452.90625 264.921875 452.90625 263.867188 L 452.90625 243.535156 C 452.90625 239.769531 455.964844 236.714844 459.730469 236.714844 L 488.277344 236.714844 C 488.703125 237.605469 488.941406 238.605469 488.941406 239.652344 Z M 488.941406 239.652344 " fill-opacity="1" fill-rule="nonzero"></path><path fill="#f5d25e" d="M 488.941406 191.714844 L 488.941406 212.039062 C 488.941406 215.808594 485.886719 218.859375 482.113281 218.859375 L 453.574219 218.859375 C 453.144531 217.972656 452.90625 216.972656 452.90625 215.921875 L 452.90625 195.59375 C 452.90625 191.828125 455.964844 188.777344 459.730469 188.777344 L 488.277344 188.777344 C 488.703125 189.664062 488.941406 190.664062 488.941406 191.714844 Z M 488.941406 191.714844 " fill-opacity="1" fill-rule="nonzero"></path><path fill="#f5d25e" d="M 435.890625 191.714844 L 435.890625 212.039062 C 435.890625 215.808594 432.835938 218.859375 429.066406 218.859375 L 400.519531 218.859375 C 400.089844 217.972656 399.851562 216.972656 399.851562 215.921875 L 399.851562 195.59375 C 399.851562 191.828125 402.910156 188.777344 406.679688 188.777344 L 435.226562 188.777344 C 435.652344 189.664062 435.890625 190.664062 435.890625 191.714844 Z M 435.890625 191.714844 " fill-opacity="1" fill-rule="nonzero"></path><path fill="#f5d25e" d="M 435.890625 239.652344 L 435.890625 259.984375 C 435.890625 263.75 432.835938 266.804688 429.066406 266.804688 L 400.519531 266.804688 C 400.089844 265.917969 399.851562 264.921875 399.851562 263.867188 L 399.851562 243.535156 C 399.851562 239.769531 402.910156 236.714844 406.679688 236.714844 L 435.226562 236.714844 C 435.652344 237.605469 435.890625 238.605469 435.890625 239.652344 Z M 435.890625 239.652344 " fill-opacity="1" fill-rule="nonzero"></path><path fill="#f5d25e" d="M 435.890625 287.59375 L 435.890625 307.925781 C 435.890625 311.695312 432.835938 314.746094 429.066406 314.746094 L 400.519531 314.746094 C 400.089844 313.855469 399.851562 312.859375 399.851562 311.808594 L 399.851562 291.476562 C 399.851562 287.714844 402.910156 284.660156 406.679688 284.660156 L 435.226562 284.660156 C 435.652344 285.550781 435.890625 286.542969 435.890625 287.59375 Z M 435.890625 287.59375 " fill-opacity="1" fill-rule="nonzero"></path><path fill="#f5d25e" d="M 435.890625 335.539062 L 435.890625 355.871094 C 435.890625 359.632812 432.835938 362.683594 429.066406 362.683594 L 400.519531 362.683594 C 400.089844 361.796875 399.851562 360.800781 399.851562 359.75 L 399.851562 339.417969 C 399.851562 335.652344 402.910156 332.601562 406.679688 332.601562 L 435.226562 332.601562 C 435.652344 333.488281 435.890625 334.488281 435.890625 335.539062 Z M 435.890625 335.539062 " fill-opacity="1" fill-rule="nonzero"></path><path fill="#f5d25e" d="M 382.839844 335.539062 L 382.839844 355.871094 C 382.839844 359.632812 379.785156 362.683594 376.019531 362.683594 L 347.46875 362.683594 C 347.042969 361.796875 346.804688 360.800781 346.804688 359.75 L 346.804688 339.417969 C 346.804688 335.652344 349.859375 332.601562 353.628906 332.601562 L 382.175781 332.601562 C 382.601562 333.488281 382.839844 334.488281 382.839844 335.539062 Z M 382.839844 335.539062 " fill-opacity="1" fill-rule="nonzero"></path><path fill="#f5d25e" d="M 382.839844 287.59375 L 382.839844 307.925781 C 382.839844 311.695312 379.785156 314.746094 376.019531 314.746094 L 347.46875 314.746094 C 347.042969 313.855469 346.804688 312.859375 346.804688 311.808594 L 346.804688 291.476562 C 346.804688 287.714844 349.859375 284.660156 353.628906 284.660156 L 382.175781 284.660156 C 382.601562 285.550781 382.839844 286.542969 382.839844 287.59375 Z M 382.839844 287.59375 " fill-opacity="1" fill-rule="nonzero"></path><path fill="#f5d25e" d="M 382.839844 239.652344 L 382.839844 259.984375 C 382.839844 263.75 379.785156 266.804688 376.019531 266.804688 L 347.46875 266.804688 C 347.042969 265.917969 346.804688 264.921875 346.804688 263.867188 L 346.804688 243.535156 C 346.804688 239.769531 349.859375 236.714844 353.628906 236.714844 L 382.175781 236.714844 C 382.601562 237.605469 382.839844 238.605469 382.839844 239.652344 Z M 382.839844 239.652344 " fill-opacity="1" fill-rule="nonzero"></path><path fill="#f5d25e" d="M 382.839844 191.714844 L 382.839844 212.039062 C 382.839844 215.808594 379.785156 218.859375 376.019531 218.859375 L 347.46875 218.859375 C 347.042969 217.972656 346.804688 216.972656 346.804688 215.921875 L 346.804688 195.59375 C 346.804688 191.828125 349.859375 188.777344 353.628906 188.777344 L 382.175781 188.777344 C 382.601562 189.664062 382.839844 190.664062 382.839844 191.714844 Z M 382.839844 191.714844 " fill-opacity="1" fill-rule="nonzero"></path><path fill="#ff5f99" d="M 540.464844 290.300781 L 540.464844 353.167969 C 540.464844 358.421875 536.199219 362.683594 530.9375 362.683594 L 507.78125 362.683594 C 506.769531 362.683594 505.792969 362.527344 504.878906 362.230469 C 501.035156 361.007812 498.253906 357.410156 498.253906 353.167969 L 498.253906 290.300781 C 498.253906 285.042969 502.519531 280.78125 507.78125 280.78125 L 530.9375 280.78125 C 535.191406 280.78125 538.796875 283.566406 540.019531 287.414062 C 540.3125 288.324219 540.464844 289.292969 540.464844 290.300781 Z M 540.464844 290.300781 " fill-opacity="1" fill-rule="nonzero"></path><path fill="#ee2363" d="M 540.464844 290.300781 L 540.464844 353.167969 C 540.464844 358.421875 536.199219 362.683594 530.9375 362.683594 L 507.78125 362.683594 C 506.769531 362.683594 505.792969 362.527344 504.878906 362.230469 C 504.585938 361.320312 504.429688 360.351562 504.429688 359.34375 L 504.429688 296.476562 C 504.429688 291.222656 508.695312 286.957031 513.960938 286.957031 L 537.117188 286.957031 C 538.128906 286.957031 539.101562 287.117188 540.019531 287.410156 C 540.3125 288.320312 540.464844 289.292969 540.464844 290.300781 Z M 540.464844 290.300781 " fill-opacity="1" fill-rule="nonzero"></path><path fill="#4eeee6" d="M 538.445312 122.128906 L 538.445312 151.777344 C 538.445312 158.59375 532.90625 164.128906 526.078125 164.128906 L 352.988281 164.128906 C 346.164062 164.128906 340.625 158.59375 340.625 151.777344 L 340.625 122.128906 C 340.625 115.304688 346.164062 109.777344 352.988281 109.777344 L 526.078125 109.777344 C 532.90625 109.777344 538.445312 115.304688 538.445312 122.128906 Z M 538.445312 122.128906 " fill-opacity="1" fill-rule="nonzero"></path><g clip-path="url(#6647e0a382)"><path fill="#611730" d="M 517.652344 388.28125 L 361.417969 388.28125 C 351.453125 388.28125 342.039062 385.058594 334.199219 378.960938 C 323.292969 370.496094 317.039062 357.734375 317.039062 343.949219 L 317.039062 127.734375 C 317.039062 103.289062 336.945312 83.402344 361.417969 83.402344 L 517.652344 83.402344 C 542.125 83.402344 562.03125 103.289062 562.03125 127.734375 L 562.03125 343.949219 C 562.03125 357.734375 555.777344 370.496094 544.871094 378.960938 C 537.03125 385.058594 527.617188 388.28125 517.652344 388.28125 Z M 361.417969 87.636719 C 339.285156 87.636719 321.273438 105.621094 321.273438 127.734375 L 321.273438 343.949219 C 321.273438 356.417969 326.933594 367.960938 336.800781 375.621094 C 343.890625 381.136719 352.402344 384.050781 361.417969 384.050781 L 517.652344 384.050781 C 526.664062 384.050781 535.175781 381.136719 542.269531 375.621094 C 552.136719 367.964844 557.792969 356.417969 557.792969 343.949219 L 557.792969 127.734375 C 557.792969 105.621094 539.785156 87.636719 517.648438 87.636719 Z M 361.417969 87.636719 " fill-opacity="1" fill-rule="nonzero"></path></g><path fill="#611730" d="M 526.082031 165.609375 L 352.988281 165.609375 C 345.355469 165.609375 339.144531 159.40625 339.144531 151.777344 L 339.144531 122.128906 C 339.144531 114.503906 345.355469 108.300781 352.988281 108.300781 L 526.078125 108.300781 C 533.714844 108.300781 539.925781 114.503906 539.925781 122.128906 L 539.925781 151.777344 C 539.925781 159.40625 533.714844 165.609375 526.078125 165.609375 Z M 352.988281 111.261719 C 346.992188 111.261719 342.109375 116.136719 342.109375 122.128906 L 342.109375 151.777344 C 342.109375 157.769531 346.988281 162.648438 352.988281 162.648438 L 526.078125 162.648438 C 532.078125 162.648438 536.960938 157.773438 536.960938 151.777344 L 536.960938 122.128906 C 536.960938 116.136719 532.082031 111.261719 526.078125 111.261719 Z M 352.988281 111.261719 " fill-opacity="1" fill-rule="nonzero"></path><path fill="#611730" d="M 376.019531 220.339844 L 347.453125 220.339844 C 342.871094 220.339844 339.140625 216.617188 339.140625 212.039062 L 339.140625 191.714844 C 339.140625 187.136719 342.867188 183.414062 347.453125 183.414062 L 376.019531 183.414062 C 380.597656 183.414062 384.324219 187.136719 384.324219 191.714844 L 384.324219 212.039062 C 384.324219 216.617188 380.597656 220.339844 376.019531 220.339844 Z M 347.453125 186.378906 C 344.507812 186.378906 342.109375 188.773438 342.109375 191.714844 L 342.109375 212.042969 C 342.109375 214.984375 344.507812 217.378906 347.453125 217.378906 L 376.019531 217.378906 C 378.964844 217.378906 381.359375 214.984375 381.359375 212.042969 L 381.359375 191.714844 C 381.359375 188.773438 378.964844 186.378906 376.019531 186.378906 Z M 347.453125 186.378906 " fill-opacity="1" fill-rule="nonzero"></path><path fill="#611730" d="M 429.066406 220.339844 L 400.5 220.339844 C 395.921875 220.339844 392.191406 216.617188 392.191406 212.039062 L 392.191406 191.714844 C 392.191406 187.136719 395.921875 183.414062 400.5 183.414062 L 429.066406 183.414062 C 433.644531 183.414062 437.375 187.136719 437.375 191.714844 L 437.375 212.039062 C 437.375 216.617188 433.644531 220.339844 429.066406 220.339844 Z M 400.503906 186.378906 C 397.554688 186.378906 395.160156 188.773438 395.160156 191.714844 L 395.160156 212.042969 C 395.160156 214.984375 397.558594 217.378906 400.503906 217.378906 L 429.066406 217.378906 C 432.011719 217.378906 434.410156 214.984375 434.410156 212.042969 L 434.410156 191.714844 C 434.410156 188.773438 432.011719 186.378906 429.066406 186.378906 Z M 400.503906 186.378906 " fill-opacity="1" fill-rule="nonzero"></path><path fill="#611730" d="M 482.113281 220.339844 L 453.550781 220.339844 C 448.96875 220.339844 445.242188 216.617188 445.242188 212.039062 L 445.242188 191.714844 C 445.242188 187.136719 448.96875 183.414062 453.550781 183.414062 L 482.113281 183.414062 C 486.695312 183.414062 490.425781 187.136719 490.425781 191.714844 L 490.425781 212.039062 C 490.425781 216.617188 486.699219 220.339844 482.113281 220.339844 Z M 453.550781 186.378906 C 450.605469 186.378906 448.207031 188.773438 448.207031 191.714844 L 448.207031 212.042969 C 448.207031 214.984375 450.605469 217.378906 453.550781 217.378906 L 482.113281 217.378906 C 485.058594 217.378906 487.457031 214.984375 487.457031 212.042969 L 487.457031 191.714844 C 487.457031 188.773438 485.058594 186.378906 482.113281 186.378906 Z M 453.550781 186.378906 " fill-opacity="1" fill-rule="nonzero"></path><path fill="#611730" d="M 376.019531 268.285156 L 347.453125 268.285156 C 342.871094 268.285156 339.140625 264.5625 339.140625 259.984375 L 339.140625 239.652344 C 339.140625 235.078125 342.867188 231.355469 347.453125 231.355469 L 376.019531 231.355469 C 380.597656 231.355469 384.324219 235.074219 384.324219 239.652344 L 384.324219 259.984375 C 384.324219 264.5625 380.597656 268.285156 376.019531 268.285156 Z M 347.453125 234.316406 C 344.507812 234.316406 342.109375 236.710938 342.109375 239.652344 L 342.109375 259.984375 C 342.109375 262.929688 344.507812 265.324219 347.453125 265.324219 L 376.019531 265.324219 C 378.964844 265.324219 381.359375 262.929688 381.359375 259.984375 L 381.359375 239.652344 C 381.359375 236.710938 378.964844 234.316406 376.019531 234.316406 Z M 347.453125 234.316406 " fill-opacity="1" fill-rule="nonzero"></path><path fill="#611730" d="M 429.066406 268.285156 L 400.5 268.285156 C 395.921875 268.285156 392.191406 264.5625 392.191406 259.984375 L 392.191406 239.652344 C 392.191406 235.078125 395.921875 231.355469 400.5 231.355469 L 429.066406 231.355469 C 433.644531 231.355469 437.375 235.074219 437.375 239.652344 L 437.375 259.984375 C 437.375 264.5625 433.644531 268.285156 429.066406 268.285156 Z M 400.503906 234.316406 C 397.554688 234.316406 395.160156 236.710938 395.160156 239.652344 L 395.160156 259.984375 C 395.160156 262.929688 397.558594 265.324219 400.503906 265.324219 L 429.066406 265.324219 C 432.011719 265.324219 434.410156 262.929688 434.410156 259.984375 L 434.410156 239.652344 C 434.410156 236.710938 432.011719 234.316406 429.066406 234.316406 Z M 400.503906 234.316406 " fill-opacity="1" fill-rule="nonzero"></path><path fill="#611730" d="M 482.113281 268.285156 L 453.550781 268.285156 C 448.96875 268.285156 445.242188 264.5625 445.242188 259.984375 L 445.242188 239.652344 C 445.242188 235.078125 448.96875 231.355469 453.550781 231.355469 L 482.113281 231.355469 C 486.695312 231.355469 490.425781 235.074219 490.425781 239.652344 L 490.425781 259.984375 C 490.425781 264.5625 486.699219 268.285156 482.113281 268.285156 Z M 453.550781 234.316406 C 450.605469 234.316406 448.207031 236.710938 448.207031 239.652344 L 448.207031 259.984375 C 448.207031 262.929688 450.605469 265.324219 453.550781 265.324219 L 482.113281 265.324219 C 485.058594 265.324219 487.457031 262.929688 487.457031 259.984375 L 487.457031 239.652344 C 487.457031 236.710938 485.058594 234.316406 482.113281 234.316406 Z M 453.550781 234.316406 " fill-opacity="1" fill-rule="nonzero"></path><path fill="#611730" d="M 533.640625 268.285156 L 505.078125 268.285156 C 500.496094 268.285156 496.765625 264.5625 496.765625 259.984375 L 496.765625 239.652344 C 496.765625 235.078125 500.492188 231.355469 505.078125 231.355469 L 533.640625 231.355469 C 538.222656 231.355469 541.949219 235.074219 541.949219 239.652344 L 541.949219 259.984375 C 541.949219 264.5625 538.222656 268.285156 533.640625 268.285156 Z M 505.078125 234.316406 C 502.132812 234.316406 499.734375 236.710938 499.734375 239.652344 L 499.734375 259.984375 C 499.734375 262.929688 502.132812 265.324219 505.078125 265.324219 L 533.640625 265.324219 C 536.585938 265.324219 538.984375 262.929688 538.984375 259.984375 L 538.984375 239.652344 C 538.984375 236.710938 536.585938 234.316406 533.640625 234.316406 Z M 505.078125 234.316406 " fill-opacity="1" fill-rule="nonzero"></path><path fill="#611730" d="M 530.9375 364.167969 L 507.78125 364.167969 C 501.707031 364.167969 496.765625 359.230469 496.765625 353.167969 L 496.765625 290.300781 C 496.765625 284.234375 501.707031 279.300781 507.78125 279.300781 L 530.9375 279.300781 C 537.007812 279.300781 541.949219 284.234375 541.949219 290.300781 L 541.949219 353.167969 C 541.949219 359.230469 537.007812 364.167969 530.9375 364.167969 Z M 507.78125 282.261719 C 503.34375 282.261719 499.734375 285.867188 499.734375 290.300781 L 499.734375 353.167969 C 499.734375 357.597656 503.34375 361.203125 507.78125 361.203125 L 530.9375 361.203125 C 535.371094 361.203125 538.984375 357.597656 538.984375 353.167969 L 538.984375 290.300781 C 538.984375 285.867188 535.375 282.261719 530.9375 282.261719 Z M 507.78125 282.261719 " fill-opacity="1" fill-rule="nonzero"></path><path fill="#611730" d="M 376.019531 316.226562 L 347.453125 316.226562 C 342.871094 316.226562 339.140625 312.503906 339.140625 307.925781 L 339.140625 287.59375 C 339.140625 283.019531 342.867188 279.296875 347.453125 279.296875 L 376.019531 279.296875 C 380.597656 279.296875 384.324219 283.019531 384.324219 287.59375 L 384.324219 307.925781 C 384.324219 312.5 380.597656 316.226562 376.019531 316.226562 Z M 347.453125 282.261719 C 344.507812 282.261719 342.109375 284.652344 342.109375 287.59375 L 342.109375 307.925781 C 342.109375 310.867188 344.507812 313.261719 347.453125 313.261719 L 376.019531 313.261719 C 378.964844 313.261719 381.359375 310.867188 381.359375 307.925781 L 381.359375 287.59375 C 381.359375 284.652344 378.964844 282.261719 376.019531 282.261719 Z M 347.453125 282.261719 " fill-opacity="1" fill-rule="nonzero"></path><path fill="#611730" d="M 429.066406 316.226562 L 400.5 316.226562 C 395.921875 316.226562 392.191406 312.503906 392.191406 307.925781 L 392.191406 287.59375 C 392.191406 283.019531 395.921875 279.296875 400.5 279.296875 L 429.066406 279.296875 C 433.644531 279.296875 437.375 283.019531 437.375 287.59375 L 437.375 307.925781 C 437.375 312.5 433.644531 316.226562 429.066406 316.226562 Z M 400.503906 282.261719 C 397.554688 282.261719 395.160156 284.652344 395.160156 287.59375 L 395.160156 307.925781 C 395.160156 310.867188 397.558594 313.261719 400.503906 313.261719 L 429.066406 313.261719 C 432.011719 313.261719 434.410156 310.867188 434.410156 307.925781 L 434.410156 287.59375 C 434.410156 284.652344 432.011719 282.261719 429.066406 282.261719 Z M 400.503906 282.261719 " fill-opacity="1" fill-rule="nonzero"></path><path fill="#611730" d="M 482.113281 316.226562 L 453.550781 316.226562 C 448.96875 316.226562 445.242188 312.503906 445.242188 307.925781 L 445.242188 287.59375 C 445.242188 283.019531 448.96875 279.296875 453.550781 279.296875 L 482.113281 279.296875 C 486.695312 279.296875 490.425781 283.019531 490.425781 287.59375 L 490.425781 307.925781 C 490.425781 312.5 486.699219 316.226562 482.113281 316.226562 Z M 453.550781 282.261719 C 450.605469 282.261719 448.207031 284.652344 448.207031 287.59375 L 448.207031 307.925781 C 448.207031 310.867188 450.605469 313.261719 453.550781 313.261719 L 482.113281 313.261719 C 485.058594 313.261719 487.457031 310.867188 487.457031 307.925781 L 487.457031 287.59375 C 487.457031 284.652344 485.058594 282.261719 482.113281 282.261719 Z M 453.550781 282.261719 " fill-opacity="1" fill-rule="nonzero"></path><path fill="#611730" d="M 376.019531 364.167969 L 347.453125 364.167969 C 342.871094 364.167969 339.140625 360.445312 339.140625 355.871094 L 339.140625 335.539062 C 339.140625 330.960938 342.867188 327.238281 347.453125 327.238281 L 376.019531 327.238281 C 380.597656 327.238281 384.324219 330.960938 384.324219 335.539062 L 384.324219 355.871094 C 384.324219 360.445312 380.597656 364.167969 376.019531 364.167969 Z M 347.453125 330.203125 C 344.507812 330.203125 342.109375 332.597656 342.109375 335.539062 L 342.109375 355.871094 C 342.109375 358.8125 344.507812 361.203125 347.453125 361.203125 L 376.019531 361.203125 C 378.964844 361.203125 381.359375 358.8125 381.359375 355.871094 L 381.359375 335.539062 C 381.359375 332.597656 378.964844 330.203125 376.019531 330.203125 Z M 347.453125 330.203125 " fill-opacity="1" fill-rule="nonzero"></path><path fill="#611730" d="M 429.066406 364.167969 L 400.5 364.167969 C 395.921875 364.167969 392.191406 360.445312 392.191406 355.871094 L 392.191406 335.539062 C 392.191406 330.960938 395.921875 327.238281 400.5 327.238281 L 429.066406 327.238281 C 433.644531 327.238281 437.375 330.960938 437.375 335.539062 L 437.375 355.871094 C 437.375 360.445312 433.644531 364.167969 429.066406 364.167969 Z M 400.503906 330.203125 C 397.554688 330.203125 395.160156 332.597656 395.160156 335.539062 L 395.160156 355.871094 C 395.160156 358.8125 397.558594 361.203125 400.503906 361.203125 L 429.066406 361.203125 C 432.011719 361.203125 434.410156 358.8125 434.410156 355.871094 L 434.410156 335.539062 C 434.410156 332.597656 432.011719 330.203125 429.066406 330.203125 Z M 400.503906 330.203125 " fill-opacity="1" fill-rule="nonzero"></path><path fill="#611730" d="M 482.113281 364.167969 L 453.550781 364.167969 C 448.96875 364.167969 445.242188 360.445312 445.242188 355.871094 L 445.242188 335.539062 C 445.242188 330.960938 448.96875 327.238281 453.550781 327.238281 L 482.113281 327.238281 C 486.695312 327.238281 490.425781 330.960938 490.425781 335.539062 L 490.425781 355.871094 C 490.425781 360.445312 486.699219 364.167969 482.113281 364.167969 Z M 453.550781 330.203125 C 450.605469 330.203125 448.207031 332.597656 448.207031 335.539062 L 448.207031 355.871094 C 448.207031 358.8125 450.605469 361.203125 453.550781 361.203125 L 482.113281 361.203125 C 485.058594 361.203125 487.457031 358.8125 487.457031 355.871094 L 487.457031 335.539062 C 487.457031 332.597656 485.058594 330.203125 482.113281 330.203125 Z M 453.550781 330.203125 " fill-opacity="1" fill-rule="nonzero"></path><path fill="#611730" d="M 532.765625 194.332031 L 505.949219 194.332031 C 505.128906 194.332031 504.464844 193.671875 504.464844 192.851562 C 504.464844 192.035156 505.128906 191.371094 505.949219 191.371094 L 532.765625 191.371094 C 533.585938 191.371094 534.25 192.035156 534.25 192.851562 C 534.25 193.671875 533.585938 194.332031 532.765625 194.332031 Z M 532.765625 194.332031 " fill-opacity="1" fill-rule="nonzero"></path><path fill="#611730" d="M 532.765625 204.6875 L 505.949219 204.6875 C 505.128906 204.6875 504.464844 204.023438 504.464844 203.203125 C 504.464844 202.386719 505.128906 201.722656 505.949219 201.722656 L 532.765625 201.722656 C 533.585938 201.722656 534.25 202.386719 534.25 203.203125 C 534.25 204.023438 533.585938 204.6875 532.765625 204.6875 Z M 532.765625 204.6875 " fill-opacity="1" fill-rule="nonzero"></path><path fill="#611730" d="M 428.21875 378.773438 L 335.5 378.773438 C 334.679688 378.773438 334.011719 378.109375 334.011719 377.289062 C 334.011719 376.472656 334.671875 375.808594 335.488281 375.808594 L 428.214844 375.808594 C 429.035156 375.808594 429.699219 376.472656 429.699219 377.289062 C 429.699219 378.109375 429.035156 378.773438 428.214844 378.773438 Z M 428.21875 378.773438 " fill-opacity="1" fill-rule="nonzero"></path><path fill="#611730" d="M 543.578125 378.773438 L 488.941406 378.773438 C 488.121094 378.773438 487.457031 378.109375 487.457031 377.289062 C 487.457031 376.472656 488.121094 375.808594 488.941406 375.808594 L 543.570312 375.808594 C 544.390625 375.808594 545.058594 376.472656 545.058594 377.289062 C 545.058594 378.109375 544.398438 378.773438 543.578125 378.773438 Z M 543.578125 378.773438 " fill-opacity="1" fill-rule="nonzero"></path><path fill="#611730" d="M 464.941406 378.773438 L 446.726562 378.773438 C 445.90625 378.773438 445.242188 378.109375 445.242188 377.289062 C 445.242188 376.472656 445.90625 375.808594 446.726562 375.808594 L 464.941406 375.808594 C 465.761719 375.808594 466.425781 376.472656 466.425781 377.289062 C 466.425781 378.109375 465.761719 378.773438 464.941406 378.773438 Z M 464.941406 378.773438 " fill-opacity="1" fill-rule="nonzero"></path></svg>